<svg xmlns="http://www.w3.org/2000/svg" viewBox="0 0 640 420" role="img" aria-labelledby="title desc">
  <title id="title">Telemetry research note thumbnail</title>
  <desc id="desc">Router metrics streaming into a telemetry pipeline.</desc>
  <defs>
    <linearGradient id="bg" x1="0" x2="1" y1="0" y2="1">
      <stop offset="0" stop-color="#102a43"/>
      <stop offset="1" stop-color="#1f2937"/>
    </linearGradient>
  </defs>
  <rect width="640" height="420" fill="url(#bg)"/>
  <rect x="56" y="96" width="142" height="92" rx="14" fill="#0f172a" stroke="#38bdf8" stroke-width="3"/>
  <rect x="56" y="232" width="142" height="92" rx="14" fill="#0f172a" stroke="#38bdf8" stroke-width="3"/>
  <rect x="418" y="92" width="166" height="236" rx="18" fill="#0f172a" stroke="#34d399" stroke-width="3"/>
  <g stroke="#67e8f9" stroke-linecap="round" stroke-width="6">
    <path d="M198 142 H286 C330 142 330 166 374 166 H418"/>
    <path d="M198 278 H286 C330 278 330 254 374 254 H418"/>
    <path d="M246 210 H418"/>
  </g>
  <g fill="#e2e8f0" font-family="Inter, Arial, sans-serif" font-weight="700">
    <text x="127" y="150" font-size="25" text-anchor="middle">SNMP</text>
    <text x="127" y="286" font-size="25" text-anchor="middle">gNMI</text>
    <text x="501" y="166" font-size="28" text-anchor="middle">Telemetry</text>
    <text x="501" y="206" font-size="20" text-anchor="middle">Pipeline</text>
  </g>
  <g fill="#34d399">
    <circle cx="462" cy="252" r="7"/>
    <circle cx="501" cy="252" r="7"/>
    <circle cx="540" cy="252" r="7"/>
  </g>
  <g fill="#94a3b8" font-family="Inter, Arial, sans-serif" font-size="18">
    <text x="72" y="366">poll vs push</text>
    <text x="434" y="366">real-time metrics</text>
  </g>
</svg>
