<svg xmlns="http://www.w3.org/2000/svg" width="1200" height="630" viewBox="0 0 1200 630" role="img" aria-labelledby="title desc">
  <title id="title">Network Troubleshooting Case Study Template</title>
  <desc id="desc">A structured network troubleshooting workflow from symptoms to root cause and verification.</desc>
  <defs>
    <linearGradient id="bg" x1="0" y1="0" x2="1" y2="1">
      <stop offset="0" stop-color="#07111f"/>
      <stop offset="0.52" stop-color="#13251f"/>
      <stop offset="1" stop-color="#1f2937"/>
    </linearGradient>
    <filter id="shadow" x="-16%" y="-20%" width="132%" height="140%">
      <feDropShadow dx="0" dy="14" stdDeviation="18" flood-color="#000000" flood-opacity="0.28"/>
    </filter>
  </defs>
  <rect width="1200" height="630" fill="url(#bg)"/>
  <g opacity="0.14" stroke="#cbd5e1">
    <path d="M0 126H1200M0 252H1200M0 378H1200M0 504H1200"/>
    <path d="M200 0V630M400 0V630M600 0V630M800 0V630M1000 0V630"/>
  </g>
  <g font-family="Inter, Segoe UI, Arial, sans-serif">
    <text x="82" y="82" fill="#93c5fd" font-size="22" font-weight="700">Network Operations</text>
    <text x="82" y="136" fill="#f8fafc" font-size="48" font-weight="800">Troubleshooting Case Study</text>
    <text x="84" y="176" fill="#cbd5e1" font-size="22">Problem, impact, root cause, fix, verification and SLA thinking</text>
  </g>
  <g filter="url(#shadow)">
    <rect x="88" y="254" width="180" height="100" rx="8" fill="#0f172a" stroke="#334155"/>
    <rect x="314" y="254" width="180" height="100" rx="8" fill="#0f172a" stroke="#334155"/>
    <rect x="540" y="254" width="180" height="100" rx="8" fill="#0f172a" stroke="#334155"/>
    <rect x="766" y="254" width="180" height="100" rx="8" fill="#0f172a" stroke="#334155"/>
    <rect x="992" y="254" width="120" height="100" rx="8" fill="#0f172a" stroke="#334155"/>
  </g>
  <g fill="none" stroke="#38bdf8" stroke-width="4" stroke-linecap="round" stroke-linejoin="round">
    <path d="M268 304H314"/>
    <path d="M494 304H540"/>
    <path d="M720 304H766"/>
    <path d="M946 304H992"/>
    <path d="M304 294L314 304L304 314"/>
    <path d="M530 294L540 304L530 314"/>
    <path d="M756 294L766 304L756 314"/>
    <path d="M982 294L992 304L982 314"/>
  </g>
  <g font-family="Inter, Segoe UI, Arial, sans-serif">
    <text x="118" y="296" fill="#f8fafc" font-size="20" font-weight="800">Symptoms</text>
    <text x="118" y="326" fill="#94a3b8" font-size="15">What is broken?</text>
    <text x="344" y="296" fill="#f8fafc" font-size="20" font-weight="800">Hypothesis</text>
    <text x="344" y="326" fill="#94a3b8" font-size="15">What can cause it?</text>
    <text x="570" y="296" fill="#f8fafc" font-size="20" font-weight="800">Root Cause</text>
    <text x="570" y="326" fill="#94a3b8" font-size="15">What evidence proves it?</text>
    <text x="796" y="296" fill="#f8fafc" font-size="20" font-weight="800">Solution</text>
    <text x="796" y="326" fill="#94a3b8" font-size="15">How was it fixed?</text>
    <text x="1018" y="296" fill="#f8fafc" font-size="20" font-weight="800">Verify</text>
    <text x="1018" y="326" fill="#94a3b8" font-size="15">Pass?</text>
  </g>
  <g>
    <rect x="252" y="430" width="696" height="70" rx="8" fill="#111827" stroke="#334155"/>
    <text x="290" y="474" fill="#34d399" font-family="Inter, Segoe UI, Arial, sans-serif" font-size="22" font-weight="800">Technical lesson + Operations / SLA impact</text>
  </g>
</svg>
